<!-- Generator: Adobe Illustrator 19.0.0, SVG Export Plug-In  -->
<svg version="1.1"
	 xmlns="http://www.w3.org/2000/svg" xmlns:xlink="http://www.w3.org/1999/xlink" xmlns:a="http://ns.adobe.com/AdobeSVGViewerExtensions/3.0/"
	 x="0px" y="0px" width="80.7px" height="25.1px" viewBox="0 0 80.7 25.1" style="enable-background:new 0 0 80.7 25.1;"
	 xml:space="preserve">
<style type="text/css">
	.st0{fill:#FFFFFF;}
</style>
<defs>
</defs>
<g id="XMLID_27_">
	<path id="XMLID_37_" class="st0" d="M11,24.7V12.2H5.4v12.4H0V7h16.5v17.6H11z"/>
	<path id="XMLID_34_" class="st0" d="M38.1,15.9c0,5.3-4.1,9.2-9.2,9.2c-5.2,0-9.2-3.9-9.2-9.2c0-5.3,4.1-9.2,9.2-9.2
		C34,6.6,38.1,10.5,38.1,15.9z M25.2,15.9c0,2.5,1.6,4,3.7,4c2.1,0,3.7-1.6,3.7-4c0-2.4-1.6-4-3.7-4C26.8,11.8,25.2,13.4,25.2,15.9z
		"/>
	<path id="XMLID_31_" class="st0" d="M53.6,24.7v-1.9c-1.1,1.4-2.8,2.3-5,2.3c-4.5,0-7.9-3.8-7.9-9.2c0-5.5,3.5-9.2,7.9-9.2
		c2.3,0,3.9,1,5,2.4V0h5.4v24.7H53.6z M46.2,15.9c0,2.5,1.6,4,3.7,4c2.1,0,3.7-1.6,3.7-4c0-2.4-1.6-4-3.7-4
		C47.8,11.8,46.2,13.4,46.2,15.9z"/>
	<path id="XMLID_28_" class="st0" d="M80.7,15.9c0,5.3-4.1,9.2-9.2,9.2c-5.2,0-9.2-3.9-9.2-9.2c0-5.3,4.1-9.2,9.2-9.2
		C76.6,6.6,80.7,10.5,80.7,15.9z M67.8,15.9c0,2.5,1.6,4,3.7,4c2.1,0,3.7-1.6,3.7-4c0-2.4-1.6-4-3.7-4
		C69.4,11.8,67.8,13.4,67.8,15.9z"/>
</g>
</svg>