<!-- Generator: Adobe Illustrator 19.0.0, SVG Export Plug-In  -->
<svg version="1.1"
	 xmlns="http://www.w3.org/2000/svg" xmlns:xlink="http://www.w3.org/1999/xlink" xmlns:a="http://ns.adobe.com/AdobeSVGViewerExtensions/3.0/"
	 x="0px" y="0px" width="79.1px" height="15.9px" viewBox="0 0 79.1 15.9" style="enable-background:new 0 0 79.1 15.9;"
	 xml:space="preserve">
<style type="text/css">
	.st0{fill:#FFFFFF;}
</style>
<defs>
</defs>
<g>
	<polygon class="st0" points="15.9,15.9 12.3,15.9 12.3,3.6 3.6,3.6 3.6,15.9 0,15.9 0,0 15.9,0 	"/>
</g>
<g>
	<path class="st0" d="M58,15.9H42.1V0H58V15.9z M45.7,12.3h8.7V3.6h-8.7V12.3z"/>
</g>
<g>
	<path class="st0" d="M29,15.9c-4.4,0-8-3.6-8-8s3.6-8,8-8c4.4,0,8,3.6,8,8S33.4,15.9,29,15.9z M29,3.6c-2.4,0-4.4,2-4.4,4.4
		s2,4.4,4.4,4.4c2.4,0,4.4-2,4.4-4.4S31.4,3.6,29,3.6z"/>
</g>
<g>
	<path class="st0" d="M71.1,15.9c-4.4,0-8-3.6-8-8s3.6-8,8-8s8,3.6,8,8S75.5,15.9,71.1,15.9z M71.1,3.6c-2.4,0-4.4,2-4.4,4.4
		s2,4.4,4.4,4.4c2.4,0,4.4-2,4.4-4.4S73.5,3.6,71.1,3.6z"/>
</g>
</svg>
