<!-- Generator: Adobe Illustrator 19.0.0, SVG Export Plug-In  -->
<svg version="1.1"
	 xmlns="http://www.w3.org/2000/svg" xmlns:xlink="http://www.w3.org/1999/xlink" xmlns:a="http://ns.adobe.com/AdobeSVGViewerExtensions/3.0/"
	 x="0px" y="0px" width="198px" height="306.7px" viewBox="0 0 198 306.7" style="enable-background:new 0 0 198 306.7;"
	 xml:space="preserve">
<style type="text/css">
	.st0{fill:#F05366;}
	.st1{fill:#71CBED;}
	.st2{fill:#FBDA1B;}
	.st3{fill:#E3549B;}
	.st4{fill:#86C46D;}
	.st5{fill:#2A4CA0;}
</style>
<defs>
</defs>
<g id="XMLID_42_">
	<g id="XMLID_103_">
		<rect id="XMLID_104_" x="0" y="229.5" class="st0" width="76.5" height="76.5"/>
	</g>
	<g id="XMLID_101_">
		<rect id="XMLID_102_" x="138.3" y="152.3" class="st0" width="59.7" height="76.5"/>
	</g>
	<g id="XMLID_99_">
		<rect id="XMLID_100_" x="49.5" y="0" class="st1" width="50.4" height="76.5"/>
	</g>
	<g id="XMLID_97_">
		<rect id="XMLID_98_" x="38.2" y="191.2" class="st1" width="38.2" height="38.2"/>
	</g>
	<g id="XMLID_95_">
		<rect id="XMLID_96_" x="159.7" y="114" class="st1" width="38.2" height="38.2"/>
	</g>
	<g id="XMLID_93_">
		<rect id="XMLID_94_" x="121.6" y="75.9" class="st2" width="38.2" height="38.2"/>
	</g>
	<g id="XMLID_91_">
		<polyline id="XMLID_92_" class="st3" points="38.2,191.2 38.2,153 76.5,153 		"/>
	</g>
	<g id="XMLID_89_">
		<polyline id="XMLID_90_" class="st2" points="19.1,172.1 38.2,172.1 38.2,191.2 		"/>
	</g>
	<g id="XMLID_86_">
		<path id="XMLID_88_" class="st3" d="M176.6,263.6c-9.6,9.6-25.2,9.6-34.9,0c-9.6-9.6-9.6-25.2,0-34.9"/>
	</g>
	<g id="XMLID_82_">
		<circle id="XMLID_84_" class="st2" cx="173.3" cy="232.1" r="3"/>
	</g>
	<g id="XMLID_78_">
		<circle id="XMLID_80_" class="st4" cx="159.1" cy="246.2" r="5.7"/>
	</g>
	<g id="XMLID_69_">
		<g id="XMLID_70_">
			<path id="XMLID_72_" class="st4" d="M127.1,252.7c6.8,0,13.2,2.6,18,7.5s7.5,11.2,7.5,18s-2.6,13.2-7.5,18
				c-4.8,4.8-11.2,7.5-18,7.5c-6.8,0-13.2-2.6-18-7.5c-4.8-4.8-7.5-11.2-7.5-18s2.6-13.2,7.5-18S120.3,252.7,127.1,252.7
				 M127.1,249.7c-7.3,0-14.6,2.8-20.1,8.3c-11.1,11.1-11.1,29.1,0,40.3c5.6,5.6,12.8,8.3,20.1,8.3c7.3,0,14.6-2.8,20.1-8.3
				c11.1-11.1,11.1-29.1,0-40.3C141.7,252.5,134.4,249.7,127.1,249.7L127.1,249.7z"/>
		</g>
	</g>
	<g id="XMLID_65_">
		<circle id="XMLID_67_" class="st1" cx="118.1" cy="191.2" r="19.1"/>
	</g>
	<g id="XMLID_63_">
		<circle id="XMLID_64_" class="st2" cx="23.9" cy="38.2" r="19.1"/>
	</g>
	<g id="XMLID_55_">
		<g id="XMLID_57_">
			<path id="XMLID_59_" class="st3" d="M118.1,192.7c-11.4,0-20.6-9.3-20.6-20.6s9.3-20.6,20.6-20.6s20.6,9.3,20.6,20.6
				S129.5,192.7,118.1,192.7z M118.1,154.5c-9.7,0-17.6,7.9-17.6,17.6s7.9,17.6,17.6,17.6s17.6-7.9,17.6-17.6
				S127.8,154.5,118.1,154.5z"/>
		</g>
	</g>
	<g id="XMLID_53_">
		<circle id="XMLID_54_" class="st4" cx="61.9" cy="115" r="38"/>
	</g>
	<g id="XMLID_51_">
		<circle id="XMLID_52_" class="st1" cx="160" cy="38.2" r="38"/>
	</g>
	<g id="XMLID_48_">
		<circle id="XMLID_50_" class="st3" cx="140.7" cy="95" r="7"/>
	</g>
	<g id="XMLID_44_">
		
			<rect id="XMLID_46_" x="151.9" y="30.1" transform="matrix(0.7071 0.7071 -0.7071 0.7071 73.9047 -101.9297)" class="st5" width="16.2" height="16.2"/>
	</g>
</g>
</svg>
